<mxfile host="app.diagrams.net" modified="2023-12-01T15:40:56.908Z" agent="Mozilla/5.0 (Windows NT 10.0; Win64; x64) AppleWebKit/537.36 (KHTML, like Gecko) Chrome/119.0.0.0 Safari/537.36" etag="wRUziCR8UUbLWSiv5Zzj" version="22.1.5" type="github">
  <diagram name="Page-1" id="_TESt1yOM_jHRzh0i_St">
    <mxGraphModel dx="1058" dy="614" grid="1" gridSize="10" guides="1" tooltips="1" connect="1" arrows="1" fold="1" page="1" pageScale="1" pageWidth="850" pageHeight="1100" math="0" shadow="0">
      <root>
        <mxCell id="0" />
        <mxCell id="1" parent="0" />
        <mxCell id="C4_OpRwlkixBQiQsbCnP-65" value="" style="edgeStyle=orthogonalEdgeStyle;rounded=0;orthogonalLoop=1;jettySize=auto;html=1;" edge="1" parent="1" source="C4_OpRwlkixBQiQsbCnP-62" target="C4_OpRwlkixBQiQsbCnP-64">
          <mxGeometry relative="1" as="geometry">
            <Array as="points">
              <mxPoint x="430" y="390" />
              <mxPoint x="430" y="390" />
            </Array>
          </mxGeometry>
        </mxCell>
        <mxCell id="C4_OpRwlkixBQiQsbCnP-62" value="" style="whiteSpace=wrap;html=1;aspect=fixed;" vertex="1" parent="1">
          <mxGeometry x="80" y="210" width="330" height="330" as="geometry" />
        </mxCell>
        <mxCell id="C4_OpRwlkixBQiQsbCnP-10" value="&lt;div style=&quot;text-align: left;&quot;&gt;&lt;span style=&quot;background-color: initial;&quot;&gt;T images&amp;nbsp;&lt;/span&gt;&lt;/div&gt;(variable for each input element)" style="text;strokeColor=none;align=center;fillColor=none;html=1;verticalAlign=middle;whiteSpace=wrap;rounded=0;" vertex="1" parent="1">
          <mxGeometry x="90" y="500" width="260" height="30" as="geometry" />
        </mxCell>
        <mxCell id="C4_OpRwlkixBQiQsbCnP-16" value="" style="group" vertex="1" connectable="0" parent="1">
          <mxGeometry x="250" y="370" width="119" height="123" as="geometry" />
        </mxCell>
        <mxCell id="C4_OpRwlkixBQiQsbCnP-17" value="" style="whiteSpace=wrap;html=1;aspect=fixed;movable=1;resizable=1;rotatable=1;deletable=1;editable=1;locked=0;connectable=1;" vertex="1" parent="C4_OpRwlkixBQiQsbCnP-16">
          <mxGeometry width="80" height="80" as="geometry" />
        </mxCell>
        <mxCell id="C4_OpRwlkixBQiQsbCnP-18" value="" style="whiteSpace=wrap;html=1;aspect=fixed;movable=1;resizable=1;rotatable=1;deletable=1;editable=1;locked=0;connectable=1;" vertex="1" parent="C4_OpRwlkixBQiQsbCnP-16">
          <mxGeometry x="4" y="4" width="80" height="80" as="geometry" />
        </mxCell>
        <mxCell id="C4_OpRwlkixBQiQsbCnP-19" value="" style="whiteSpace=wrap;html=1;aspect=fixed;movable=1;resizable=1;rotatable=1;deletable=1;editable=1;locked=0;connectable=1;" vertex="1" parent="C4_OpRwlkixBQiQsbCnP-16">
          <mxGeometry x="8" y="8" width="80" height="80" as="geometry" />
        </mxCell>
        <mxCell id="C4_OpRwlkixBQiQsbCnP-20" value="" style="whiteSpace=wrap;html=1;aspect=fixed;movable=1;resizable=1;rotatable=1;deletable=1;editable=1;locked=0;connectable=1;" vertex="1" parent="C4_OpRwlkixBQiQsbCnP-16">
          <mxGeometry x="12" y="12" width="80" height="80" as="geometry" />
        </mxCell>
        <mxCell id="C4_OpRwlkixBQiQsbCnP-21" value="" style="whiteSpace=wrap;html=1;aspect=fixed;movable=1;resizable=1;rotatable=1;deletable=1;editable=1;locked=0;connectable=1;" vertex="1" parent="C4_OpRwlkixBQiQsbCnP-16">
          <mxGeometry x="16" y="17" width="80" height="80" as="geometry" />
        </mxCell>
        <mxCell id="C4_OpRwlkixBQiQsbCnP-22" value="" style="whiteSpace=wrap;html=1;aspect=fixed;movable=1;resizable=1;rotatable=1;deletable=1;editable=1;locked=0;connectable=1;" vertex="1" parent="C4_OpRwlkixBQiQsbCnP-16">
          <mxGeometry x="21" y="23" width="80" height="80" as="geometry" />
        </mxCell>
        <mxCell id="C4_OpRwlkixBQiQsbCnP-23" value="" style="whiteSpace=wrap;html=1;aspect=fixed;movable=1;resizable=1;rotatable=1;deletable=1;editable=1;locked=0;connectable=1;" vertex="1" parent="C4_OpRwlkixBQiQsbCnP-16">
          <mxGeometry x="26" y="28" width="80" height="80" as="geometry" />
        </mxCell>
        <mxCell id="C4_OpRwlkixBQiQsbCnP-24" value="" style="whiteSpace=wrap;html=1;aspect=fixed;movable=1;resizable=1;rotatable=1;deletable=1;editable=1;locked=0;connectable=1;" vertex="1" parent="C4_OpRwlkixBQiQsbCnP-16">
          <mxGeometry x="31" y="34" width="80" height="80" as="geometry" />
        </mxCell>
        <mxCell id="C4_OpRwlkixBQiQsbCnP-25" value="" style="whiteSpace=wrap;html=1;aspect=fixed;movable=1;resizable=1;rotatable=1;deletable=1;editable=1;locked=0;connectable=1;" vertex="1" parent="C4_OpRwlkixBQiQsbCnP-16">
          <mxGeometry x="35" y="39" width="80" height="80" as="geometry" />
        </mxCell>
        <mxCell id="C4_OpRwlkixBQiQsbCnP-26" value="" style="whiteSpace=wrap;html=1;aspect=fixed;movable=1;resizable=1;rotatable=1;deletable=1;editable=1;locked=0;connectable=1;" vertex="1" parent="C4_OpRwlkixBQiQsbCnP-16">
          <mxGeometry x="39" y="43" width="80" height="80" as="geometry" />
        </mxCell>
        <mxCell id="C4_OpRwlkixBQiQsbCnP-15" value="" style="group" vertex="1" connectable="0" parent="1">
          <mxGeometry x="250" y="280" width="119" height="123" as="geometry" />
        </mxCell>
        <mxCell id="C4_OpRwlkixBQiQsbCnP-1" value="" style="whiteSpace=wrap;html=1;aspect=fixed;movable=1;resizable=1;rotatable=1;deletable=1;editable=1;locked=0;connectable=1;" vertex="1" parent="C4_OpRwlkixBQiQsbCnP-15">
          <mxGeometry width="80" height="80" as="geometry" />
        </mxCell>
        <mxCell id="C4_OpRwlkixBQiQsbCnP-2" value="" style="whiteSpace=wrap;html=1;aspect=fixed;movable=1;resizable=1;rotatable=1;deletable=1;editable=1;locked=0;connectable=1;" vertex="1" parent="C4_OpRwlkixBQiQsbCnP-15">
          <mxGeometry x="4" y="4" width="80" height="80" as="geometry" />
        </mxCell>
        <mxCell id="C4_OpRwlkixBQiQsbCnP-3" value="" style="whiteSpace=wrap;html=1;aspect=fixed;movable=1;resizable=1;rotatable=1;deletable=1;editable=1;locked=0;connectable=1;" vertex="1" parent="C4_OpRwlkixBQiQsbCnP-15">
          <mxGeometry x="8" y="8" width="80" height="80" as="geometry" />
        </mxCell>
        <mxCell id="C4_OpRwlkixBQiQsbCnP-4" value="" style="whiteSpace=wrap;html=1;aspect=fixed;movable=1;resizable=1;rotatable=1;deletable=1;editable=1;locked=0;connectable=1;" vertex="1" parent="C4_OpRwlkixBQiQsbCnP-15">
          <mxGeometry x="12" y="12" width="80" height="80" as="geometry" />
        </mxCell>
        <mxCell id="C4_OpRwlkixBQiQsbCnP-5" value="" style="whiteSpace=wrap;html=1;aspect=fixed;movable=1;resizable=1;rotatable=1;deletable=1;editable=1;locked=0;connectable=1;" vertex="1" parent="C4_OpRwlkixBQiQsbCnP-15">
          <mxGeometry x="16" y="17" width="80" height="80" as="geometry" />
        </mxCell>
        <mxCell id="C4_OpRwlkixBQiQsbCnP-6" value="" style="whiteSpace=wrap;html=1;aspect=fixed;movable=1;resizable=1;rotatable=1;deletable=1;editable=1;locked=0;connectable=1;" vertex="1" parent="C4_OpRwlkixBQiQsbCnP-15">
          <mxGeometry x="21" y="23" width="80" height="80" as="geometry" />
        </mxCell>
        <mxCell id="C4_OpRwlkixBQiQsbCnP-11" value="" style="whiteSpace=wrap;html=1;aspect=fixed;movable=1;resizable=1;rotatable=1;deletable=1;editable=1;locked=0;connectable=1;" vertex="1" parent="C4_OpRwlkixBQiQsbCnP-15">
          <mxGeometry x="26" y="28" width="80" height="80" as="geometry" />
        </mxCell>
        <mxCell id="C4_OpRwlkixBQiQsbCnP-12" value="" style="whiteSpace=wrap;html=1;aspect=fixed;movable=1;resizable=1;rotatable=1;deletable=1;editable=1;locked=0;connectable=1;" vertex="1" parent="C4_OpRwlkixBQiQsbCnP-15">
          <mxGeometry x="31" y="34" width="80" height="80" as="geometry" />
        </mxCell>
        <mxCell id="C4_OpRwlkixBQiQsbCnP-13" value="" style="whiteSpace=wrap;html=1;aspect=fixed;movable=1;resizable=1;rotatable=1;deletable=1;editable=1;locked=0;connectable=1;" vertex="1" parent="C4_OpRwlkixBQiQsbCnP-15">
          <mxGeometry x="35" y="39" width="80" height="80" as="geometry" />
        </mxCell>
        <mxCell id="C4_OpRwlkixBQiQsbCnP-14" value="" style="whiteSpace=wrap;html=1;aspect=fixed;movable=1;resizable=1;rotatable=1;deletable=1;editable=1;locked=0;connectable=1;" vertex="1" parent="C4_OpRwlkixBQiQsbCnP-15">
          <mxGeometry x="39" y="43" width="80" height="80" as="geometry" />
        </mxCell>
        <mxCell id="C4_OpRwlkixBQiQsbCnP-27" value="" style="group" vertex="1" connectable="0" parent="1">
          <mxGeometry x="160" y="370" width="138.5" height="123" as="geometry" />
        </mxCell>
        <mxCell id="C4_OpRwlkixBQiQsbCnP-28" value="" style="whiteSpace=wrap;html=1;aspect=fixed;movable=1;resizable=1;rotatable=1;deletable=1;editable=1;locked=0;connectable=1;" vertex="1" parent="C4_OpRwlkixBQiQsbCnP-27">
          <mxGeometry width="80" height="80" as="geometry" />
        </mxCell>
        <mxCell id="C4_OpRwlkixBQiQsbCnP-29" value="" style="whiteSpace=wrap;html=1;aspect=fixed;movable=1;resizable=1;rotatable=1;deletable=1;editable=1;locked=0;connectable=1;" vertex="1" parent="C4_OpRwlkixBQiQsbCnP-27">
          <mxGeometry x="4" y="4" width="80" height="80" as="geometry" />
        </mxCell>
        <mxCell id="C4_OpRwlkixBQiQsbCnP-30" value="" style="whiteSpace=wrap;html=1;aspect=fixed;movable=1;resizable=1;rotatable=1;deletable=1;editable=1;locked=0;connectable=1;" vertex="1" parent="C4_OpRwlkixBQiQsbCnP-27">
          <mxGeometry x="8" y="8" width="80" height="80" as="geometry" />
        </mxCell>
        <mxCell id="C4_OpRwlkixBQiQsbCnP-31" value="" style="whiteSpace=wrap;html=1;aspect=fixed;movable=1;resizable=1;rotatable=1;deletable=1;editable=1;locked=0;connectable=1;" vertex="1" parent="C4_OpRwlkixBQiQsbCnP-27">
          <mxGeometry x="12" y="12" width="80" height="80" as="geometry" />
        </mxCell>
        <mxCell id="C4_OpRwlkixBQiQsbCnP-32" value="" style="whiteSpace=wrap;html=1;aspect=fixed;movable=1;resizable=1;rotatable=1;deletable=1;editable=1;locked=0;connectable=1;" vertex="1" parent="C4_OpRwlkixBQiQsbCnP-27">
          <mxGeometry x="16" y="17" width="80" height="80" as="geometry" />
        </mxCell>
        <mxCell id="C4_OpRwlkixBQiQsbCnP-33" value="" style="whiteSpace=wrap;html=1;aspect=fixed;movable=1;resizable=1;rotatable=1;deletable=1;editable=1;locked=0;connectable=1;" vertex="1" parent="C4_OpRwlkixBQiQsbCnP-27">
          <mxGeometry x="21" y="23" width="80" height="80" as="geometry" />
        </mxCell>
        <mxCell id="C4_OpRwlkixBQiQsbCnP-34" value="" style="whiteSpace=wrap;html=1;aspect=fixed;movable=1;resizable=1;rotatable=1;deletable=1;editable=1;locked=0;connectable=1;" vertex="1" parent="C4_OpRwlkixBQiQsbCnP-27">
          <mxGeometry x="26" y="28" width="80" height="80" as="geometry" />
        </mxCell>
        <mxCell id="C4_OpRwlkixBQiQsbCnP-35" value="" style="whiteSpace=wrap;html=1;aspect=fixed;movable=1;resizable=1;rotatable=1;deletable=1;editable=1;locked=0;connectable=1;" vertex="1" parent="C4_OpRwlkixBQiQsbCnP-27">
          <mxGeometry x="31" y="34" width="80" height="80" as="geometry" />
        </mxCell>
        <mxCell id="C4_OpRwlkixBQiQsbCnP-36" value="" style="whiteSpace=wrap;html=1;aspect=fixed;movable=1;resizable=1;rotatable=1;deletable=1;editable=1;locked=0;connectable=1;" vertex="1" parent="C4_OpRwlkixBQiQsbCnP-27">
          <mxGeometry x="35" y="39" width="80" height="80" as="geometry" />
        </mxCell>
        <mxCell id="C4_OpRwlkixBQiQsbCnP-37" value="" style="whiteSpace=wrap;html=1;aspect=fixed;movable=1;resizable=1;rotatable=1;deletable=1;editable=1;locked=0;connectable=1;" vertex="1" parent="C4_OpRwlkixBQiQsbCnP-27">
          <mxGeometry x="39" y="43" width="80" height="80" as="geometry" />
        </mxCell>
        <mxCell id="C4_OpRwlkixBQiQsbCnP-61" value="" style="group" vertex="1" connectable="0" parent="1">
          <mxGeometry x="80" y="240" width="159" height="130" as="geometry" />
        </mxCell>
        <mxCell id="C4_OpRwlkixBQiQsbCnP-38" value="" style="group" vertex="1" connectable="0" parent="C4_OpRwlkixBQiQsbCnP-61">
          <mxGeometry x="40" width="119" height="123" as="geometry" />
        </mxCell>
        <mxCell id="C4_OpRwlkixBQiQsbCnP-39" value="" style="whiteSpace=wrap;html=1;aspect=fixed;movable=1;resizable=1;rotatable=1;deletable=1;editable=1;locked=0;connectable=1;" vertex="1" parent="C4_OpRwlkixBQiQsbCnP-38">
          <mxGeometry width="80" height="80" as="geometry" />
        </mxCell>
        <mxCell id="C4_OpRwlkixBQiQsbCnP-40" value="" style="whiteSpace=wrap;html=1;aspect=fixed;movable=1;resizable=1;rotatable=1;deletable=1;editable=1;locked=0;connectable=1;" vertex="1" parent="C4_OpRwlkixBQiQsbCnP-38">
          <mxGeometry x="4" y="4" width="80" height="80" as="geometry" />
        </mxCell>
        <mxCell id="C4_OpRwlkixBQiQsbCnP-41" value="" style="whiteSpace=wrap;html=1;aspect=fixed;movable=1;resizable=1;rotatable=1;deletable=1;editable=1;locked=0;connectable=1;" vertex="1" parent="C4_OpRwlkixBQiQsbCnP-38">
          <mxGeometry x="8" y="8" width="80" height="80" as="geometry" />
        </mxCell>
        <mxCell id="C4_OpRwlkixBQiQsbCnP-42" value="" style="whiteSpace=wrap;html=1;aspect=fixed;movable=1;resizable=1;rotatable=1;deletable=1;editable=1;locked=0;connectable=1;" vertex="1" parent="C4_OpRwlkixBQiQsbCnP-38">
          <mxGeometry x="12" y="12" width="80" height="80" as="geometry" />
        </mxCell>
        <mxCell id="C4_OpRwlkixBQiQsbCnP-43" value="" style="whiteSpace=wrap;html=1;aspect=fixed;movable=1;resizable=1;rotatable=1;deletable=1;editable=1;locked=0;connectable=1;" vertex="1" parent="C4_OpRwlkixBQiQsbCnP-38">
          <mxGeometry x="16" y="17" width="80" height="80" as="geometry" />
        </mxCell>
        <mxCell id="C4_OpRwlkixBQiQsbCnP-44" value="" style="whiteSpace=wrap;html=1;aspect=fixed;movable=1;resizable=1;rotatable=1;deletable=1;editable=1;locked=0;connectable=1;" vertex="1" parent="C4_OpRwlkixBQiQsbCnP-38">
          <mxGeometry x="21" y="23" width="80" height="80" as="geometry" />
        </mxCell>
        <mxCell id="C4_OpRwlkixBQiQsbCnP-45" value="" style="whiteSpace=wrap;html=1;aspect=fixed;movable=1;resizable=1;rotatable=1;deletable=1;editable=1;locked=0;connectable=1;" vertex="1" parent="C4_OpRwlkixBQiQsbCnP-38">
          <mxGeometry x="26" y="28" width="80" height="80" as="geometry" />
        </mxCell>
        <mxCell id="C4_OpRwlkixBQiQsbCnP-46" value="" style="whiteSpace=wrap;html=1;aspect=fixed;movable=1;resizable=1;rotatable=1;deletable=1;editable=1;locked=0;connectable=1;" vertex="1" parent="C4_OpRwlkixBQiQsbCnP-38">
          <mxGeometry x="31" y="34" width="80" height="80" as="geometry" />
        </mxCell>
        <mxCell id="C4_OpRwlkixBQiQsbCnP-47" value="" style="whiteSpace=wrap;html=1;aspect=fixed;movable=1;resizable=1;rotatable=1;deletable=1;editable=1;locked=0;connectable=1;" vertex="1" parent="C4_OpRwlkixBQiQsbCnP-38">
          <mxGeometry x="35" y="39" width="80" height="80" as="geometry" />
        </mxCell>
        <mxCell id="C4_OpRwlkixBQiQsbCnP-48" value="" style="whiteSpace=wrap;html=1;aspect=fixed;movable=1;resizable=1;rotatable=1;deletable=1;editable=1;locked=0;connectable=1;" vertex="1" parent="C4_OpRwlkixBQiQsbCnP-38">
          <mxGeometry x="39" y="43" width="80" height="80" as="geometry" />
        </mxCell>
        <mxCell id="C4_OpRwlkixBQiQsbCnP-9" value="" style="endArrow=classic;startArrow=classic;html=1;rounded=0;" edge="1" parent="C4_OpRwlkixBQiQsbCnP-38">
          <mxGeometry width="50" height="50" relative="1" as="geometry">
            <mxPoint x="-16" y="80" as="sourcePoint" />
            <mxPoint x="35" y="134" as="targetPoint" />
          </mxGeometry>
        </mxCell>
        <mxCell id="C4_OpRwlkixBQiQsbCnP-8" value="128x128" style="text;strokeColor=none;align=center;fillColor=none;html=1;verticalAlign=middle;whiteSpace=wrap;rounded=0;" vertex="1" parent="C4_OpRwlkixBQiQsbCnP-38">
          <mxGeometry x="50" y="53" width="60" height="30" as="geometry" />
        </mxCell>
        <mxCell id="C4_OpRwlkixBQiQsbCnP-60" value="10 channels" style="text;strokeColor=none;align=center;fillColor=none;html=1;verticalAlign=middle;whiteSpace=wrap;rounded=0;" vertex="1" parent="C4_OpRwlkixBQiQsbCnP-61">
          <mxGeometry y="100" width="60" height="30" as="geometry" />
        </mxCell>
        <mxCell id="C4_OpRwlkixBQiQsbCnP-63" value="&lt;b&gt;&lt;font style=&quot;font-size: 14px;&quot;&gt;1 Satellite Image Time Series input&lt;/font&gt;&lt;/b&gt;" style="text;strokeColor=none;align=center;fillColor=none;html=1;verticalAlign=middle;whiteSpace=wrap;rounded=0;" vertex="1" parent="1">
          <mxGeometry x="140" y="550" width="220" height="30" as="geometry" />
        </mxCell>
        <mxCell id="C4_OpRwlkixBQiQsbCnP-69" value="" style="edgeStyle=orthogonalEdgeStyle;rounded=0;orthogonalLoop=1;jettySize=auto;html=1;" edge="1" parent="1" source="C4_OpRwlkixBQiQsbCnP-64" target="C4_OpRwlkixBQiQsbCnP-66">
          <mxGeometry relative="1" as="geometry" />
        </mxCell>
        <mxCell id="C4_OpRwlkixBQiQsbCnP-64" value="Semantic Segmentation" style="shape=process;whiteSpace=wrap;html=1;backgroundOutline=1;" vertex="1" parent="1">
          <mxGeometry x="464" y="360" width="120" height="60" as="geometry" />
        </mxCell>
        <mxCell id="C4_OpRwlkixBQiQsbCnP-66" value="" style="whiteSpace=wrap;html=1;aspect=fixed;" vertex="1" parent="1">
          <mxGeometry x="636" y="302" width="175.5" height="175.5" as="geometry" />
        </mxCell>
        <mxCell id="C4_OpRwlkixBQiQsbCnP-72" value="&lt;b&gt;&lt;font style=&quot;font-size: 14px;&quot;&gt;Output&lt;/font&gt;&lt;/b&gt;" style="text;strokeColor=none;align=center;fillColor=none;html=1;verticalAlign=middle;whiteSpace=wrap;rounded=0;" vertex="1" parent="1">
          <mxGeometry x="613.75" y="477.5" width="220" height="30" as="geometry" />
        </mxCell>
        <mxCell id="C4_OpRwlkixBQiQsbCnP-75" style="edgeStyle=orthogonalEdgeStyle;rounded=0;orthogonalLoop=1;jettySize=auto;html=1;exitX=0.5;exitY=1;exitDx=0;exitDy=0;" edge="1" parent="1" source="C4_OpRwlkixBQiQsbCnP-72" target="C4_OpRwlkixBQiQsbCnP-72">
          <mxGeometry relative="1" as="geometry" />
        </mxCell>
        <mxCell id="C4_OpRwlkixBQiQsbCnP-76" value="0-19 class labels for each pixel" style="text;html=1;align=center;verticalAlign=middle;resizable=0;points=[];autosize=1;strokeColor=none;fillColor=none;" vertex="1" parent="1">
          <mxGeometry x="630" y="403" width="190" height="30" as="geometry" />
        </mxCell>
        <mxCell id="C4_OpRwlkixBQiQsbCnP-77" value="" style="group" vertex="1" connectable="0" parent="1">
          <mxGeometry x="683" y="318" width="80" height="80" as="geometry" />
        </mxCell>
        <mxCell id="C4_OpRwlkixBQiQsbCnP-67" value="" style="whiteSpace=wrap;html=1;aspect=fixed;" vertex="1" parent="C4_OpRwlkixBQiQsbCnP-77">
          <mxGeometry width="80" height="80" as="geometry" />
        </mxCell>
        <mxCell id="C4_OpRwlkixBQiQsbCnP-70" value="128x128" style="text;strokeColor=none;align=center;fillColor=none;html=1;verticalAlign=middle;whiteSpace=wrap;rounded=0;" vertex="1" parent="C4_OpRwlkixBQiQsbCnP-77">
          <mxGeometry x="10" y="11" width="60" height="30" as="geometry" />
        </mxCell>
      </root>
    </mxGraphModel>
  </diagram>
</mxfile>
